<?xml version="1.0" encoding="utf-8"?>
<!-- Generator: Adobe Illustrator 23.0.1, SVG Export Plug-In . SVG Version: 6.00 Build 0)  -->
<svg version="1.1" id="Layer_1" xmlns="http://www.w3.org/2000/svg" xmlns:xlink="http://www.w3.org/1999/xlink" x="0px" y="0px"
	 viewBox="0 0 300 300" style="enable-background:new 0 0 300 300;" xml:space="preserve">
<style type="text/css">
	.st0{fill:#DEDC00;}
	.st1{fill:none;}
	.st2{fill:#FFFFFF;}
	.st3{fill:#DADADA;}
</style>
<path class="st0" d="M84.39,209.13c-0.24,1.34-0.45,2.68-0.72,4.01c-1.95,9.64-3.98,19.26-5.84,28.91
	c-0.79,4.07-1.25,8.21-1.88,12.43c-6.81-5.88-12.84-12.45-18.03-19.7c6.19-4.76,12.12-9.75,17.64-15.22
	c3.04-3.02,5.88-6.21,8.15-9.86c0.13-0.22,0.3-0.41,0.45-0.62C84.24,209.09,84.31,209.11,84.39,209.13z"/>
<path class="st0" d="M98.26,124.33c-0.03,1.59-0.01,2.97-0.68,4.24c-0.33,0.62-0.83,1.1-1.57,1.03c-2.06-0.2-4.11-0.45-6.19-0.75
	C92.95,128.07,95.96,127.06,98.26,124.33z"/>
<path class="st1" d="M30.1,165.93c0.09-1.2,0.18-2.4,0.26-3.6c1.57-23.45,9.34-44.64,23.48-63.39c15.6-20.68,35.89-34.8,60.69-42.37
	c0.55-0.17,0.84-0.42,1.04-0.98c3.87-10.91,8.3-21.57,13.84-31.75c2.84-5.21,6.04-10.2,9.44-15.06c0.5-0.71,1.08-1.38,1.69-2
	c1.47-1.5,3.27-1.99,5.26-1.32c2.02,0.68,3.04,2.3,3.13,4.31c0.08,1.7-0.16,3.44-0.46,5.12c-1.16,6.57-2.34,13.15-3.65,19.69
	c-0.45,2.25-1.35,4.42-1.99,6.64c-1.01,3.51-1.98,7.03-3,10.68c21.89-1.46,42.56,2.61,62.14,12.39c0.21-0.31,0.41-0.59,0.6-0.88
	c7.35-11.35,15.75-21.9,24.62-32.08c1.85-2.12,4.04-3.97,6.17-5.83c1.23-1.07,2.67-1.87,4.42-1.84c2.56,0.05,4.12,1.62,4.09,4.16
	c-0.03,1.89-0.53,3.7-1.21,5.43c-2.11,5.3-4.29,10.58-6.42,15.87c-3.75,9.3-7.35,18.65-10.58,28.14c-0.25,0.73-0.12,1.11,0.45,1.59
	c13.96,11.61,24.74,25.65,32.29,42.16c4.25,9.29,7.21,18.98,8.92,29.05c1.26,7.38,1.81,14.81,1.67,22.3
	c-0.1,5.3-0.56,10.56-1.34,15.8c-0.12,0.83,0.12,1.73,0.22,2.59c0.48,4.17,1.06,8.34,1.43,12.52c0.38,4.33,0.73,8.67,0.81,13.01
	c0.15,7.78-0.75,15.46-3.1,22.91c-2.36,7.46-5.67,14.45-10.51,20.65c-1.55,1.98-3.29,3.78-5.4,5.18c-1.8,1.2-3.76,2.12-5.96,1.85
	c-1.43-0.18-2.83-0.68-4.19-1.21c-3.09-1.2-5.65-3.22-8-5.51c-0.86-0.84-1.65-1.74-2.47-2.61c-1.82,1.54-3.47,2.99-5.17,4.38
	c-13.27,10.79-28.17,18.36-44.7,22.72c-5.9,1.56-11.88,2.62-17.95,3.24c-2.23,0.23-4.48,0.32-6.71,0.47
	c-0.42,0.03-0.84,0.09-1.26,0.13c-2.74,0-5.48,0-8.23,0c-0.4-0.04-0.79-0.1-1.19-0.13c-2.26-0.16-4.53-0.25-6.78-0.48
	c-6.06-0.62-12.05-1.67-17.94-3.24c-19.87-5.27-37.22-15.03-52.07-29.24c-5.7-5.46-10.79-11.44-15.28-17.94
	c-0.26-0.38-0.53-0.51-0.99-0.49c-0.82,0.04-1.65,0.04-2.48,0c-3.93-0.18-6.8-2.28-8.13-5.97c-1.11-3.07-1.37-6.31-1.64-9.53
	c-0.3-3.58-0.49-7.16-0.74-10.75c-0.02-0.25-0.1-0.51-0.18-0.75c-3.74-10.46-5.97-21.23-6.65-32.31c-0.07-1.18-0.17-2.35-0.25-3.52
	C30.1,171.41,30.1,168.67,30.1,165.93z M90.32,264.97c0.08-0.47,0.15-0.81,0.21-1.16c0.98-5.65,2.09-11.27,3.68-16.79
	c1.45-5.02,3.53-9.8,5.54-14.61c2.58-6.16,5.21-12.3,8.78-17.98c2.66-4.23,5.54-8.28,9.24-11.71c4.3-3.99,9.35-5.22,14.83-3.44
	c10.91,3.53,18.7,10.65,23.18,21.28c1.93,4.58,2.86,9.4,3.61,14.3c1.06,6.95,2.39,13.86,3.54,20.8c0.68,4.1,1.35,8.2,1.76,12.33
	c0.29,2.95,0.15,5.95,0.19,8.92c0.01,1.08,0,2.16,0,3.3c0.8-0.13,1.52-0.25,2.24-0.36c6.93-1.13,13.68-2.96,20.25-5.42
	c0.21-0.08,0.46-0.4,0.48-0.62c0.26-4.25,0.45-8.5,0.73-12.74c0.21-3.18,0.49-6.36,0.8-9.53c0.26-2.68,0.61-5.35,0.91-8.02
	c0.31-2.77,0.47-5.56,0.93-8.3c0.69-4.09,1.61-8.15,2.37-12.23c0.49-2.62,0.88-5.26,1.34-7.88c0.18-1,0.53-1.98,1.62-2.3
	c1.08-0.31,1.88,0.33,2.53,1.08c1.45,1.65,2.93,3.29,4.25,5.04c4.47,5.92,8.8,11.96,14.05,17.24c6.01,6.05,11.98,12.15,18.08,18.12
	c1.86,1.82,4.06,3.3,6.15,4.88c1.16,0.88,2.41,0.75,3.56-0.05c0.6-0.41,1.18-0.89,1.65-1.44c2.53-2.96,5.02-5.97,6.98-9.36
	c3.01-5.21,4.9-10.85,6.41-16.66c1.48-5.72,2.13-11.5,1.68-17.4c-0.36-4.64-0.6-9.29-1.05-13.92c-0.3-3.14-0.63-6.32-1.36-9.38
	c-1.08-4.51-2.51-8.94-3.83-13.39c-1.9-6.42-4.35-12.62-7.6-18.48c-1.02-1.85-2.15-3.62-3.84-4.95c-1.41-1.11-2.96-1.74-4.83-1.68
	c-2.19,0.07-4.4,0.01-6.59-0.15c-2.68-0.2-5.36-0.48-8.03-0.86c-2.83-0.41-5.38-1.71-8.03-2.7c-2.78-1.04-5.58-2.05-8.4-2.97
	c-1.33-0.44-1.86,0.1-1.74,1.49c0.16,1.7,0.81,3.15,2.21,4.19c0.93,0.69,1.87,1.38,2.86,1.97c3.28,1.96,6.6,3.86,9.89,5.82
	c0.58,0.35,1.14,0.77,1.61,1.26c0.7,0.74,0.56,1.77-0.32,2.31c-0.47,0.29-1.03,0.5-1.57,0.58c-3.67,0.58-7.36,0.4-11.04,0.19
	c-3.73-0.2-7.46-0.34-11.19-0.01c-0.79,0.07-1.6,0.18-2.36,0.41c-0.87,0.26-1.2,1.04-1.26,1.88c-0.06,0.75,0.41,1.23,1.04,1.55
	c0.27,0.14,0.55,0.29,0.84,0.38c3.09,0.89,6.22,1.68,9.45,1.67c1.92-0.01,3.84-0.42,5.77-0.59c3.89-0.34,7.33,0.69,9.8,3.81
	c1.85,2.34,3.48,4.88,5.08,7.41c1.74,2.77,4.02,4.88,6.99,6.21c3.28,1.48,6.69,2.57,10.24,3.19c2.18,0.39,4.4,0.56,6.48,1.41
	c3.7,1.51,6.4,3.95,7.16,8.02c0.36,1.92,0.53,3.89,0.61,5.84c0.15,3.6-0.23,7.18-0.82,10.72c-0.71,4.29-1.53,8.59-3.58,12.47
	c-2.53,4.8-5.26,9.49-7.96,14.2c-0.41,0.72-1.04,1.36-1.69,1.89c-1.4,1.14-2.97,1.27-4.56,0.41c-0.64-0.34-1.22-0.81-1.77-1.29
	c-4.37-3.75-8.3-7.91-11.79-12.51c-7.94-10.46-16.87-20.02-26.41-29.03c-2.25-2.13-3.51-4.78-3.47-7.88c0.03-2.3,0.26-4.62,0.64-6.9
	c0.52-3.16,1.27-6.29,1.91-9.43c0.22-1.08-0.08-1.78-1.05-2.31c-0.59-0.33-1.24-0.57-1.88-0.82c-3.16-1.27-5.77-3.22-7.5-6.2
	c-1.39-2.39-1.2-4.74,0.39-6.98c1.21-1.7,2.85-2.8,4.83-3.4c3.45-1.03,6.95-0.91,10.47-0.5c0.85,0.1,1.7,0.24,2.54,0.37
	c0.07-0.09,0.14-0.18,0.21-0.27c-0.29-0.2-0.62-0.36-0.87-0.61c-1.23-1.21-2.47-2.41-3.66-3.66c-1.37-1.45-2.6-3-3.41-4.84
	c-1.12-2.55-1.16-5.46,1.53-7.61c1.23-0.98,2.01-2.33,2.18-3.86c0.21-1.96,0.28-3.96,0.21-5.93c-0.14-3.89-0.52-7.78-0.61-11.68
	c-0.18-7.62,1.49-14.76,5.34-21.43c1.93-3.34,3.57-6.88,4.99-10.46c2.54-6.4,4.68-12.96,7.22-19.35c3.02-7.6,6.31-15.1,9.46-22.66
	c1.58-3.79,3.12-7.59,4.66-11.39c0.15-0.37,0.21-0.78,0.31-1.17c-0.46,0.15-0.79,0.37-1.1,0.61c-2.88,2.2-5.17,4.94-7.32,7.84
	c-8.27,11.16-16.63,22.26-24.05,34.02c-4.07,6.45-8.24,12.83-11.05,19.98c-0.48,1.23-1.25,2.4-2.08,3.44
	c-1.63,2.03-3.95,2.32-5.95,0.73c-1.84-1.46-3.9-2.4-6.12-2.99c-8.8-2.36-17.66-4.44-26.68-5.77c-3.02-0.44-6.08-0.55-9.11-0.05
	c-1.58,0.26-3.14,0.67-4.72,0.91c-3.6,0.54-6.19-1.28-6.8-4.77c-0.19-1.11-0.27-2.25-0.32-3.38c-0.23-5.48,0.34-10.91,1.16-16.31
	c1.25-8.19,3.03-16.28,5.16-24.29c1.64-6.15,3.67-12.2,4.79-18.49c0.38-2.13,0.68-4.27,1.03-6.47c-0.23,0.05-0.29,0.05-0.32,0.08
	c-0.13,0.17-0.26,0.34-0.38,0.51c-3.41,4.81-6.38,9.88-8.92,15.19c-7.91,16.59-13.91,33.84-17.86,51.79
	c-1.73,7.86-3.39,15.73-5.11,23.58c-1.13,5.14-2.33,10.25-3.48,15.39c-0.65,2.93-0.5,5.75,1.04,8.44c0.52,0.9,0.81,1.96,1.07,2.98
	c0.81,3.09,0.26,5.84-2.19,8.08c-0.75,0.68-1.44,1.44-2.08,2.23c-3.54,4.38-5.16,9.53-6,15c-0.53,3.45-0.98,6.92-1.71,10.33
	c-0.85,3.96-1.94,7.87-2.98,11.79c-0.42,1.58-1.14,3.05-2.16,4.35c-0.77,0.99-1.75,1.66-3.02,1.8c-1.13,0.13-2.26,0.16-3.39,0.26
	c-1.7,0.16-3.3,0.61-4.66,1.68c-2.37,1.87-4.76,3.74-7.08,5.68c-3.37,2.82-6.61,5.8-10.05,8.53c-2.38,1.89-4.39,4-5.74,6.72
	c-0.15,0.29-0.32,0.58-0.52,0.84c-0.81,1.09-2.05,1.01-2.67-0.2c-0.26-0.52-0.45-1.1-0.54-1.67c-0.62-3.77-0.73-7.58-0.64-11.38
	c0.1-4.01,0.51-8.02,0.61-12.03c0.14-5.81,0.06-11.63,0.22-17.44c0.06-2.25,0.35-4.53,0.84-6.73c0.43-1.96,1.11-3.92,1.98-5.72
	c1.11-2.28,3.08-3.26,5.71-3.1c2.75,0.16,5.52,0.15,8.28,0.04c2.03-0.08,4.02-0.53,5.85-1.51c1.43-0.77,2.37-1.91,2.75-3.51
	c0.45-1.92-0.04-3.1-1.75-4.1c-0.26-0.15-0.54-0.3-0.78-0.49c-0.83-0.67-0.78-1.77,0.14-2.3c0.44-0.26,0.95-0.45,1.45-0.53
	c1.56-0.23,3.13-0.52,4.71-0.55c3.4-0.06,6.8,0.03,10.2,0.04c1.72,0,3.45-0.01,5.17-0.08c1.2-0.05,1.78-0.48,2.03-1.33
	c0.31-1.07,0.05-1.91-0.98-2.55c-0.88-0.54-1.82-1.01-2.79-1.35c-3.08-1.07-6.28-1.27-9.51-1.17c-2.51,0.08-5-0.01-7.48-0.43
	c-2.09-0.35-4.2-0.66-6.31-0.85c-1.47-0.13-2.95-0.03-4.43-0.03c-0.02-0.08-0.04-0.15-0.06-0.23c0.78-0.7,1.55-1.41,2.34-2.1
	c3.87-3.38,8.47-5.36,13.32-6.83c1.8-0.55,3.63-1.02,5.43-1.57c1.6-0.5,2.61-1.66,3.19-3.19c0.35-0.91,0.12-1.46-0.77-1.82
	c-0.58-0.24-1.21-0.42-1.83-0.52c-2.05-0.34-4.04,0.13-6.04,0.5c-3.6,0.68-6.91,2.2-10.25,3.61c-5.39,2.27-10.62,4.8-15.28,8.4
	c-4.65,3.6-8.04,7.98-8.92,13.95c-0.88,5.93-1.77,11.86-2.48,17.81c-0.75,6.38-1.41,12.77-1.89,19.18
	c-0.47,6.22-0.78,12.45-0.96,18.69c-0.19,6.35-0.17,12.72-0.17,19.07c0,2.38,0.08,4.77,0.31,7.14c0.35,3.51,4.45,7.3,9.14,4.7
	c2.08-1.15,4.06-2.45,5.75-4.11c3.31-3.24,6.57-6.53,9.73-9.92c2.97-3.2,5.79-6.55,8.65-9.86c1.4-1.63,2.67-3.38,4.15-4.93
	c0.88-0.92,1.97-1.74,3.11-2.27c3.44-1.6,7.99,1.39,7.53,5.25c-0.08,0.65-0.18,1.32-0.37,1.94c-2.32,7.73-3.51,15.69-4.88,23.62
	c-1.01,5.86-1.95,11.73-2.87,17.61c-0.56,3.61-1.02,7.25-1.54,10.87c-0.07,0.49,0.07,0.78,0.47,1.05c2.04,1.37,4.06,2.76,6.09,4.14
	C89.39,264.42,89.82,264.66,90.32,264.97z M159.72,280.85c0.02-0.19,0.04-0.31,0.04-0.42c0.46-7.52-0.18-14.95-1.62-22.34
	c-1-5.14-1.86-10.31-2.77-15.46c-0.77-4.37-1.35-8.77-2.33-13.09c-1.62-7.17-4.84-13.53-10.27-18.64c-2.61-2.46-5.36-4.71-8.68-6.16
	c-3.52-1.54-7.07-1.87-10.58,0c-2.59,1.38-4.98,3.1-6.64,5.53c-1.82,2.66-3.52,5.43-5.03,8.28c-8.06,15.24-13.82,31.3-16.91,48.29
	c-0.12,0.64,0.1,0.9,0.63,1.19c18.49,9.9,38.21,14.25,59.13,13.2C156.37,281.14,158.03,280.98,159.72,280.85z M259.73,170.59
	c0.09-0.03,0.17-0.06,0.26-0.09c-0.5-34.12-13.56-62.47-39.1-85.24c-0.92,2.15-1.76,4.15-2.64,6.12c-2.07,4.63-4.22,9.22-6.23,13.87
	c-1.28,2.95-2.28,6.01-2.75,9.2c-0.84,5.76-0.52,11.49,0.68,17.19c0.77,3.68,2.45,6.7,5.68,8.78c4.55,2.94,9.56,4.61,14.9,5.19
	c3.14,0.34,6.32,0.41,9.48,0.56c5.07,0.23,9,2.39,11.9,6.6c2.34,3.41,3.9,7.15,5.29,11C258.01,166.06,258.88,168.32,259.73,170.59z
	 M112.48,64.66c-12.07,4.17-22.97,10.1-32.85,17.91c-9.89,7.82-18.26,17.04-25.04,27.68c-6.78,10.64-11.57,22.12-14.5,34.39
	c-2.51,10.52-3.86,32.49-2.16,37.22c0.04-0.22,0.09-0.38,0.1-0.53c0.39-4.4,0.73-8.8,1.18-13.2c0.75-7.23,1.55-14.46,2.39-21.69
	c0.34-2.93,0.96-5.82,2.18-8.54c2.97-6.64,7.67-11.78,13.67-15.81c4.22-2.83,8.82-4.9,13.43-6.97c6.72-3.01,13.69-4.32,21.05-3.39
	c3.27,0.41,5.73,1.91,7.26,4.86c0.08,0.16,0.19,0.31,0.34,0.56c0.9-2.92,1.93-5.69,2.6-8.54c1.34-5.72,2.49-11.48,3.71-17.23
	c1.74-8.24,3.55-16.46,5.97-24.54C112.02,66.17,112.22,65.5,112.48,64.66z M198.16,70.31c-18.96-9.32-38.86-12.96-59.8-11.17
	c-0.06,0.27-0.13,0.49-0.17,0.72c-0.75,4.4-1.53,8.79-2.21,13.19c-0.43,2.77-0.7,5.57-1.02,8.36c-0.18,1.55,0.82,2.52,2.09,2.71
	c1,0.16,2.01,0.34,3.02,0.36c1.77,0.03,3.55-0.2,5.31-0.09c3.82,0.24,7.64,0.52,11.43,0.96c6.44,0.76,12.71,2.34,18.81,4.52
	c1.88,0.67,3.68,1.58,5.52,2.39c1.5,0.66,2.3,0.52,3.4-0.71c0.47-0.53,0.91-1.09,1.29-1.69c2.44-3.79,4.88-7.58,7.29-11.39
	C194.8,75.81,196.44,73.1,198.16,70.31z M238.75,235.3c0.24-0.3,0.36-0.44,0.47-0.6c3.27-4.58,6.21-9.36,8.71-14.41
	c1.18-2.37,2.5-4.68,2.86-7.41c0.44-3.3,1.14-6.55,0.62-9.92c-0.35-2.28-1.31-4.01-3.52-4.9c-0.83-0.33-1.66-0.67-2.51-0.96
	c-2.88-0.99-5.8-1.85-8.63-2.95c-8.11-3.15-14.96-7.91-19.39-15.65c-0.9-1.57-2.34-2.25-4.15-2.23c-1.63,0.02-3.26,0.02-4.89-0.02
	c-1.24-0.03-1.49,0.1-1.82,1.28c-0.68,2.4-1.4,4.8-2.02,7.21c-0.69,2.67-1.05,5.38-0.51,8.13c0.59,2.98,2.41,5.16,4.58,7.14
	c4.98,4.55,9.6,9.44,14.02,14.54c5.01,5.8,9.59,11.93,14.06,18.15C237.26,233.58,237.99,234.38,238.75,235.3z M58.94,198.24
	c1.77-0.9,3.49-1.71,4.97-2.94c2.91-2.42,5.77-4.89,8.71-7.26c3.67-2.96,7.72-5.17,12.48-5.83c0.65-0.09,1-0.48,1.16-1.08
	c0.2-0.78,0.33-1.58,0.61-2.33c1.57-4.33,2.31-8.85,3.09-13.35c0.8-4.6,1.65-9.2,3.55-13.52c0.24-0.55,0.37-1.17,0.44-1.77
	c0.1-0.91-0.22-1.3-1.13-1.5c-1.01-0.22-2.03-0.42-3.06-0.57c-1.96-0.27-2.82,0.19-3.76,1.9c-0.15,0.27-0.29,0.54-0.44,0.81
	c-3.14,5.6-7.95,8.8-14.26,9.71c-2.26,0.32-4.57,0.3-6.85,0.43c-2.54,0.14-3.73,1.09-3.99,3.6c-0.47,4.6-0.9,9.22-1.11,13.84
	c-0.26,5.74-0.28,11.48-0.4,17.22C58.93,196.44,58.94,197.28,58.94,198.24z M194.73,271.39c10.55-4.85,19.94-11.03,28.27-18.55
	c-3.87-4.29-7.76-8.46-11.48-12.76c-3.73-4.32-7.39-8.69-11.37-12.94C196.4,241.69,195.23,256.4,194.73,271.39z M84.39,209.13
	c-0.08-0.02-0.15-0.04-0.23-0.06c-0.15,0.21-0.31,0.4-0.45,0.62c-2.27,3.66-5.11,6.85-8.15,9.86c-5.52,5.47-11.45,10.46-17.64,15.22
	c5.18,7.25,11.21,13.82,18.03,19.7c0.63-4.22,1.09-8.35,1.88-12.43c1.87-9.65,3.89-19.27,5.84-28.91
	C83.94,211.81,84.15,210.47,84.39,209.13z M98.26,124.33c-2.3,2.73-5.31,3.74-8.44,4.52c2.08,0.29,4.13,0.55,6.19,0.75
	c0.74,0.07,1.24-0.41,1.57-1.03C98.25,127.31,98.23,125.92,98.26,124.33z"/>
<path class="st2" d="M90.32,264.97c-0.5-0.31-0.93-0.55-1.33-0.82c-2.03-1.38-4.05-2.77-6.09-4.14c-0.4-0.27-0.54-0.56-0.47-1.05
	c0.53-3.62,0.98-7.25,1.54-10.87c0.92-5.88,1.86-11.75,2.87-17.61c1.37-7.93,2.56-15.89,4.88-23.62c0.19-0.63,0.29-1.29,0.37-1.94
	c0.46-3.86-4.08-6.86-7.53-5.25c-1.15,0.53-2.24,1.36-3.11,2.27c-1.48,1.55-2.74,3.31-4.15,4.93c-2.86,3.31-5.67,6.65-8.65,9.86
	c-3.15,3.39-6.42,6.68-9.73,9.92c-1.69,1.65-3.67,2.95-5.75,4.11c-4.69,2.59-8.79-1.2-9.14-4.7c-0.23-2.37-0.31-4.76-0.31-7.14
	c0-6.36-0.01-12.72,0.17-19.07c0.18-6.23,0.49-12.47,0.96-18.69c0.48-6.4,1.14-12.8,1.89-19.18c0.7-5.95,1.6-11.88,2.48-17.81
	c0.88-5.97,4.27-10.35,8.92-13.95c4.66-3.6,9.89-6.13,15.28-8.4c3.35-1.41,6.65-2.94,10.25-3.61c1.99-0.37,3.99-0.85,6.04-0.5
	c0.62,0.1,1.24,0.29,1.83,0.52c0.89,0.36,1.12,0.91,0.77,1.82c-0.59,1.53-1.59,2.69-3.19,3.19c-1.8,0.56-3.63,1.03-5.43,1.57
	c-4.85,1.47-9.45,3.44-13.32,6.83c-0.79,0.69-1.56,1.4-2.34,2.1c0.02,0.08,0.04,0.15,0.06,0.23c1.48,0,2.97-0.11,4.43,0.03
	c2.11,0.19,4.22,0.49,6.31,0.85c2.48,0.42,4.97,0.52,7.48,0.43c3.23-0.1,6.43,0.1,9.51,1.17c0.97,0.34,1.91,0.81,2.79,1.35
	c1.04,0.64,1.3,1.48,0.98,2.55c-0.25,0.85-0.83,1.28-2.03,1.33c-1.72,0.07-3.45,0.08-5.17,0.08c-3.4-0.01-6.8-0.1-10.2-0.04
	c-1.57,0.03-3.14,0.32-4.71,0.55c-0.5,0.07-1.01,0.27-1.45,0.53c-0.92,0.54-0.97,1.63-0.14,2.3c0.24,0.19,0.51,0.34,0.78,0.49
	c1.71,1,2.2,2.18,1.75,4.1c-0.38,1.6-1.32,2.74-2.75,3.51c-1.83,0.98-3.82,1.44-5.85,1.51c-2.76,0.11-5.53,0.12-8.28-0.04
	c-2.63-0.16-4.6,0.82-5.71,3.1c-0.88,1.81-1.55,3.76-1.98,5.72c-0.48,2.2-0.78,4.48-0.84,6.73c-0.16,5.81-0.07,11.63-0.22,17.44
	c-0.1,4.01-0.51,8.02-0.61,12.03c-0.09,3.8,0.02,7.61,0.64,11.38c0.09,0.57,0.28,1.16,0.54,1.67c0.62,1.21,1.86,1.29,2.67,0.2
	c0.2-0.26,0.37-0.55,0.52-0.84c1.35-2.72,3.36-4.83,5.74-6.72c3.44-2.73,6.68-5.71,10.05-8.53c2.32-1.94,4.7-3.81,7.08-5.68
	c1.36-1.07,2.97-1.53,4.66-1.68c1.13-0.1,2.26-0.13,3.39-0.26c1.26-0.14,2.25-0.82,3.02-1.8c1.02-1.3,1.74-2.76,2.16-4.35
	c1.04-3.92,2.13-7.83,2.98-11.79c0.73-3.41,1.18-6.88,1.71-10.33c0.84-5.47,2.46-10.62,6-15c0.64-0.79,1.33-1.54,2.08-2.23
	c2.45-2.24,3-4.98,2.19-8.08c-0.27-1.02-0.56-2.08-1.07-2.98c-1.54-2.69-1.69-5.51-1.04-8.44c1.15-5.13,2.35-10.25,3.48-15.39
	c1.72-7.86,3.38-15.73,5.11-23.58c3.96-17.95,9.96-35.2,17.86-51.79c2.53-5.32,5.5-10.39,8.92-15.19c0.12-0.17,0.25-0.34,0.38-0.51
	c0.02-0.03,0.09-0.02,0.32-0.08c-0.35,2.21-0.65,4.35-1.03,6.47c-1.11,6.29-3.15,12.33-4.79,18.49c-2.13,8.01-3.91,16.09-5.16,24.29
	c-0.82,5.4-1.39,10.83-1.16,16.31c0.05,1.13,0.13,2.27,0.32,3.38c0.61,3.5,3.2,5.32,6.8,4.77c1.58-0.24,3.14-0.65,4.72-0.91
	c3.04-0.51,6.09-0.4,9.11,0.05c9.02,1.33,17.89,3.41,26.68,5.77c2.22,0.6,4.28,1.53,6.12,2.99c2,1.59,4.32,1.3,5.95-0.73
	c0.83-1.04,1.6-2.2,2.08-3.44c2.81-7.15,6.98-13.54,11.05-19.98c7.42-11.76,15.78-22.86,24.05-34.02c2.15-2.91,4.44-5.64,7.32-7.84
	c0.31-0.24,0.64-0.46,1.1-0.61c-0.1,0.39-0.16,0.8-0.31,1.17c-1.54,3.8-3.08,7.61-4.66,11.39c-3.15,7.55-6.44,15.05-9.46,22.66
	c-2.54,6.4-4.69,12.95-7.22,19.35c-1.42,3.59-3.06,7.13-4.99,10.46c-3.85,6.67-5.53,13.81-5.34,21.43c0.09,3.9,0.48,7.78,0.61,11.68
	c0.07,1.97,0,3.97-0.21,5.93c-0.17,1.53-0.96,2.88-2.18,3.86c-2.68,2.14-2.64,5.06-1.53,7.61c0.81,1.84,2.04,3.4,3.41,4.84
	c1.19,1.25,2.43,2.46,3.66,3.66c0.25,0.24,0.58,0.41,0.87,0.61c-0.07,0.09-0.14,0.18-0.21,0.27c-0.85-0.12-1.69-0.27-2.54-0.37
	c-3.52-0.41-7.02-0.53-10.47,0.5c-1.99,0.6-3.63,1.7-4.83,3.4c-1.59,2.24-1.78,4.59-0.39,6.98c1.73,2.98,4.34,4.93,7.5,6.2
	c0.63,0.26,1.28,0.49,1.88,0.82c0.97,0.53,1.27,1.23,1.05,2.31c-0.64,3.14-1.39,6.27-1.91,9.43c-0.38,2.27-0.61,4.59-0.64,6.9
	c-0.04,3.09,1.22,5.75,3.47,7.88c9.54,9.01,18.47,18.57,26.41,29.03c3.49,4.6,7.42,8.76,11.79,12.51c0.55,0.47,1.13,0.94,1.77,1.29
	c1.59,0.86,3.17,0.73,4.56-0.41c0.65-0.53,1.28-1.17,1.69-1.89c2.7-4.71,5.43-9.4,7.96-14.2c2.05-3.88,2.86-8.17,3.58-12.47
	c0.59-3.55,0.97-7.12,0.82-10.72c-0.08-1.95-0.25-3.92-0.61-5.84c-0.76-4.07-3.46-6.51-7.16-8.02c-2.08-0.85-4.3-1.02-6.48-1.41
	c-3.55-0.63-6.96-1.72-10.24-3.19c-2.97-1.34-5.25-3.44-6.99-6.21c-1.59-2.53-3.22-5.07-5.08-7.41c-2.47-3.12-5.91-4.15-9.8-3.81
	c-1.93,0.17-3.84,0.58-5.77,0.59c-3.23,0.01-6.36-0.78-9.45-1.67c-0.29-0.08-0.57-0.23-0.84-0.38c-0.63-0.33-1.09-0.8-1.04-1.55
	c0.06-0.85,0.39-1.62,1.26-1.88c0.76-0.23,1.57-0.34,2.36-0.41c3.73-0.33,7.46-0.19,11.19,0.01c3.68,0.2,7.37,0.38,11.04-0.19
	c0.54-0.09,1.1-0.3,1.57-0.58c0.87-0.53,1.02-1.56,0.32-2.31c-0.46-0.49-1.03-0.91-1.61-1.26c-3.29-1.95-6.61-3.86-9.89-5.82
	c-0.99-0.59-1.93-1.28-2.86-1.97c-1.4-1.04-2.06-2.49-2.21-4.19c-0.13-1.4,0.41-1.93,1.74-1.49c2.82,0.93,5.62,1.93,8.4,2.97
	c2.65,0.99,5.2,2.29,8.03,2.7c2.66,0.38,5.34,0.67,8.03,0.86c2.19,0.16,4.39,0.22,6.59,0.15c1.87-0.06,3.42,0.56,4.83,1.68
	c1.69,1.33,2.82,3.1,3.84,4.95c3.25,5.87,5.7,12.07,7.6,18.48c1.32,4.45,2.75,8.88,3.83,13.39c0.73,3.06,1.06,6.23,1.36,9.38
	c0.44,4.63,0.69,9.28,1.05,13.92c0.46,5.9-0.2,11.68-1.68,17.4c-1.5,5.8-3.4,11.44-6.41,16.66c-1.96,3.39-4.44,6.4-6.98,9.36
	c-0.47,0.55-1.05,1.02-1.65,1.44c-1.15,0.8-2.4,0.93-3.56,0.05c-2.09-1.58-4.29-3.06-6.15-4.88c-6.1-5.97-12.07-12.06-18.08-18.12
	c-5.25-5.29-9.57-11.32-14.05-17.24c-1.32-1.75-2.8-3.39-4.25-5.04c-0.65-0.74-1.45-1.39-2.53-1.08c-1.1,0.32-1.45,1.3-1.62,2.3
	c-0.46,2.63-0.85,5.26-1.34,7.88c-0.77,4.08-1.69,8.13-2.37,12.23c-0.46,2.74-0.63,5.54-0.93,8.3c-0.3,2.68-0.65,5.35-0.91,8.02
	c-0.31,3.17-0.59,6.35-0.8,9.53c-0.28,4.24-0.47,8.49-0.73,12.74c-0.01,0.22-0.26,0.54-0.48,0.62c-6.58,2.46-13.32,4.29-20.25,5.42
	c-0.72,0.12-1.44,0.23-2.24,0.36c0-1.14,0.01-2.22,0-3.3c-0.04-2.98,0.1-5.97-0.19-8.92c-0.41-4.13-1.08-8.24-1.76-12.33
	c-1.14-6.94-2.48-13.84-3.54-20.8c-0.74-4.9-1.68-9.72-3.61-14.3c-4.47-10.63-12.26-17.74-23.18-21.28
	c-5.48-1.77-10.54-0.55-14.83,3.44c-3.69,3.42-6.57,7.48-9.24,11.71c-3.57,5.68-6.2,11.82-8.78,17.98
	c-2.01,4.81-4.09,9.59-5.54,14.61c-1.59,5.52-2.71,11.14-3.68,16.79C90.47,264.16,90.4,264.5,90.32,264.97z M124.25,129.62
	c0.01-0.18,0.01-0.51,0.04-0.84c0.03-0.35,0.06-0.71,0.15-1.05c0.26-1.03,0.83-1.57,1.78-1.65c0.54-0.04,1.1-0.06,1.63,0.02
	c1.65,0.27,3.29,0.61,4.94,0.89c2.28,0.39,4.56,0.78,6.85,1.09c1.38,0.19,2.13-0.32,2.52-1.51c0.58-1.78-0.2-2.99-2.16-3.33
	c-1.02-0.18-2.08-0.22-3.07-0.49c-3.97-1.08-8.05-1.32-12.12-1.65c-2.92-0.24-5.83-0.54-8.74-0.82c-0.52-0.05-1.03-0.16-1.55-0.14
	c-0.87,0.03-1.5,0.59-1.72,1.43c-0.24,0.89-0.06,1.32,0.8,1.9c0.29,0.2,0.61,0.37,0.88,0.59c3.03,2.39,3.63,6.08-0.4,8.47
	c-0.51,0.3-1.1,0.5-1.53,0.88c-0.38,0.33-0.79,0.82-0.85,1.29c-0.2,1.5,1.36,3.39,2.85,3.56c1.5,0.17,3.01,0.31,4.51,0.42
	c4.22,0.33,8.43,0.66,12.65,0.95c1.22,0.08,2.45,0.1,3.67,0.03c0.9-0.05,1.59-0.55,1.94-1.44c0.64-1.65-0.29-2.98-2.18-3.21
	c-2.72-0.34-5.43-0.73-8.14-1.08c-2.21-0.28-2.83-1.47-2.82-3.59C124.2,130.15,124.23,129.96,124.25,129.62z M177.09,127.49
	c0-0.13,0-0.27,0-0.4c-1.51,0-3.02-0.06-4.53,0.02c-2.12,0.11-4.24,0.21-6.33,0.53c-1.62,0.25-2.13,1.41-1.44,2.91
	c0.38,0.83,0.93,1.58,1.44,2.35c1.07,1.6,0.95,3.41-0.41,4.77c-0.5,0.5-1.13,0.85-1.66,1.32c-0.49,0.44-0.99,0.89-1.35,1.43
	c-0.5,0.76-0.27,1.59,0.56,1.96c0.67,0.3,1.43,0.46,2.16,0.54c1.64,0.18,3.3,0.19,4.94,0.41c4.16,0.54,8.32,1.17,12.48,1.71
	c1.04,0.13,2.12,0.16,3.16,0.04c1.08-0.12,1.71-1,1.74-2.08c0.04-1.2-0.41-1.86-1.6-2.16c-1.09-0.28-2.21-0.49-3.32-0.71
	c-1.87-0.38-3.75-0.73-5.61-1.15c-1.48-0.33-2.25-1.12-2.35-2.46c-0.06-0.74,0.06-1.5,0.22-2.23c0.17-0.81,0.74-1.31,1.58-1.42
	c0.61-0.08,1.22-0.14,1.83-0.11c4.12,0.2,8.25,0.36,12.3,1.31c1.19,0.28,2-0.29,2.35-1.47c0.37-1.26-0.06-2.27-1.38-3.08
	c-2.03-1.26-4.25-1.94-6.63-1.98C182.52,127.45,179.8,127.49,177.09,127.49z M155.2,158.56c0.03,0,0.06,0,0.08,0
	c-0.08-1.23-0.09-2.46-0.24-3.67c-0.3-2.52-1.23-4.81-2.95-6.7c-2.32-2.55-5.27-2.79-8.35-1.88c-3.65,1.08-6.73,3.16-9.49,5.74
	c-1.89,1.77-3.68,3.65-4.62,6.1c-0.39,1.01-0.6,2.13-0.66,3.22c-0.07,1.13,0.85,2,2.11,2.33c0.89,0.24,1.52-0.06,2.2-1.13
	c0.67-1.06,1.26-2.16,1.92-3.22c1.6-2.55,3.53-4.8,5.97-6.56c1.52-1.09,3.2-1.68,5.13-1.36c2.18,0.37,3.3,1.49,3.54,3.68
	c0.09,0.82,0.04,1.65,0.06,2.47c0.07,2.81,0.09,5.62,0.21,8.42c0.06,1.32,1.02,2.13,2.35,2.16c1.8,0.04,2.71-0.87,2.73-2.75
	C155.21,163.14,155.2,160.85,155.2,158.56z"/>
<path class="st3" d="M159.72,280.85c-1.69,0.13-3.35,0.29-5.02,0.38c-20.93,1.06-40.65-3.3-59.13-13.2
	c-0.53-0.28-0.74-0.55-0.63-1.19c3.09-16.99,8.84-33.05,16.91-48.29c1.51-2.85,3.21-5.62,5.03-8.28c1.67-2.43,4.05-4.15,6.64-5.53
	c3.51-1.87,7.05-1.54,10.58,0c3.32,1.45,6.06,3.71,8.68,6.16c5.43,5.11,8.65,11.47,10.27,18.64c0.98,4.32,1.56,8.73,2.33,13.09
	c0.91,5.16,1.76,10.32,2.77,15.46c1.44,7.39,2.08,14.82,1.62,22.34C159.76,280.54,159.74,280.66,159.72,280.85z M130.16,270.16
	c-0.02,0-0.03,0-0.05-0.01c-0.01-0.24-0.01-0.47-0.04-0.71c-0.34-2.6-0.68-5.19-1.04-7.79c-0.14-1.03-0.26-2.07-0.51-3.07
	c-0.4-1.55-1.73-2.22-3.18-1.7c-1.1,0.4-1.61,1.51-1.41,3c0.33,2.53,0.6,5.06,0.95,7.59c0.25,1.77,0.52,3.55,0.92,5.29
	c0.24,1.05,0.97,1.43,2.1,1.39c0.99-0.03,1.72-0.57,1.93-1.55C129.99,271.81,130.05,270.98,130.16,270.16z M133.26,220.58
	c0.2,1.45,0.41,2.89,0.58,4.34c0.15,1.26,0.19,2.54,0.4,3.79c0.23,1.31,1.07,1.92,2.34,1.88c1.31-0.05,2-0.66,2.18-2.04
	c0.33-2.56,0.21-5.13-0.09-7.69c-0.17-1.46-0.5-2.85-1.28-4.14c-0.86-1.42-2.51-0.98-3.11,0.06
	C133.6,217.97,133.28,219.21,133.26,220.58z M118.63,237.82c0-0.33,0-0.66,0-0.99c-0.02-1.59-1.09-2.3-2.57-1.71
	c-1.67,0.66-2.48,1.94-2.69,3.68c-0.23,1.89-0.35,3.8-1.09,5.61c-0.28,0.67-0.29,1.48-0.3,2.23c-0.01,1.25,0.79,2.24,1.95,2.57
	c1.04,0.29,1.82-0.06,2.26-1.04C117.65,244.87,118.56,241.45,118.63,237.82z M141.81,254.74c-0.08-0.55-0.08-0.96-0.21-1.33
	c-0.74-2.21-1.47-4.42-2.27-6.61c-0.38-1.03-1.22-1.7-2.28-1.97c-1.67-0.42-2.94,0.98-2.65,2.89c0.39,2.62,1.29,5.07,2.55,7.38
	c0.38,0.7,0.84,1.38,1.39,1.95c0.94,0.99,2.52,0.66,3.02-0.6C141.61,255.87,141.69,255.23,141.81,254.74z M143.63,237.93
	c0.08,0.51,0.14,1.03,0.23,1.54c0.64,3.34,2.24,6.18,4.54,8.65c0.47,0.5,1.01,0.68,1.66,0.39c0.95-0.43,1.54-1.44,1.38-2.48
	c-0.13-0.84-0.27-1.68-0.51-2.49c-0.78-2.62-1.9-5.08-3.77-7.13c-0.72-0.79-1.61-0.94-2.5-0.55
	C143.73,236.26,143.61,237.06,143.63,237.93z M156.1,268.33c-0.01-0.06-0.01-0.18-0.03-0.29c-0.3-1.83-0.58-3.67-0.91-5.5
	c-0.35-1.95-1.25-3.5-3.27-4.16c-0.68-0.22-1.28-0.08-1.6,0.53c-0.62,1.21-0.92,2.51-0.59,3.89c0.27,1.14,0.61,2.27,0.82,3.41
	c0.34,1.84,1.01,3.4,2.94,4.06C154.92,270.77,156.11,269.93,156.1,268.33z M130.97,237.37c0.1-2.5-0.98-3.3-2.86-2.66
	c-1.26,0.43-2,1.33-2.24,2.6c-0.29,1.5-0.52,3.02-0.71,4.54c-0.11,0.88-0.21,1.79-0.14,2.67c0.09,1.27,1.07,1.95,2.33,1.76
	c1.56-0.24,2.62-1.26,2.88-2.97C130.54,241.16,130.77,239,130.97,237.37z M145.68,270.76c0.16-1.77-0.38-2.66-1.67-2.83
	c-1.4-0.19-2.66,0.56-2.94,1.95c-0.21,1.03-0.2,2.11-0.25,3.16c-0.06,1.55-0.19,3.11-0.09,4.65c0.09,1.41,1.07,2.14,2.44,2.1
	c1.4-0.03,2.15-0.77,2.3-2.25c0.03-0.26,0.04-0.52,0.04-0.78C145.57,274.76,145.63,272.76,145.68,270.76z M113.66,268.66
	c-0.09-0.3-0.35-0.87-0.42-1.46c-0.15-1.21-0.22-2.44-0.31-3.66c-0.12-1.7-1.1-2.89-2.67-3.22c-1.01-0.21-1.78,0.15-2.2,1.09
	c-0.46,1.04-0.61,2.13-0.4,3.25c0.24,1.25,0.5,2.49,0.76,3.73c0.28,1.33,1,2.26,2.33,2.68C112.42,271.59,113.65,270.7,113.66,268.66
	z M125.93,219.94c0.01,0,0.02,0,0.03,0c0-1.04,0.04-2.08-0.01-3.12c-0.06-1.33-0.85-2.06-2.18-2.12c-1.57-0.06-2.5,0.88-2.59,2.7
	c-0.08,1.72-0.11,3.45-0.15,5.17c-0.01,0.33,0.02,0.66,0.09,0.98c0.27,1.28,1.16,1.88,2.63,1.81c1.23-0.06,1.85-0.64,1.98-1.96
	C125.84,222.25,125.86,221.1,125.93,219.94z M106.67,252.77c-0.15-0.79-0.2-1.35-0.37-1.89c-0.33-1.09-1.11-1.51-2.24-1.33
	c-0.93,0.15-1.68,0.61-2.02,1.47c-0.38,0.98-0.7,2-0.88,3.03c-0.13,0.77-0.08,1.59,0.04,2.37c0.13,0.89,0.79,1.37,1.69,1.42
	c1.39,0.07,2.41-0.49,2.89-1.8C106.19,254.93,106.41,253.75,106.67,252.77z M117.62,226.41c0-1.89-0.93-2.65-2.44-2.33
	c-0.29,0.06-0.59,0.18-0.85,0.32c-1.99,1.05-2.98,2.73-3.15,4.94c-0.06,0.78,0.1,1.47,0.79,1.92c0.72,0.47,1.55,0.58,2.29,0.17
	C116.33,230.26,117.44,228.44,117.62,226.41z"/>
<path class="st0" d="M259.73,170.59c-0.85-2.27-1.72-4.53-2.54-6.81c-1.39-3.85-2.95-7.59-5.29-11c-2.89-4.22-6.83-6.37-11.9-6.6
	c-3.16-0.15-6.34-0.22-9.48-0.56c-5.35-0.58-10.35-2.25-14.9-5.19c-3.22-2.08-4.9-5.1-5.68-8.78c-1.2-5.7-1.52-11.42-0.68-17.19
	c0.47-3.19,1.47-6.25,2.75-9.2c2.02-4.65,4.16-9.25,6.23-13.87c0.88-1.97,1.71-3.97,2.64-6.12c25.55,22.77,38.6,51.13,39.1,85.24
	C259.9,170.54,259.82,170.56,259.73,170.59z"/>
<path class="st0" d="M112.48,64.66c-0.25,0.84-0.46,1.51-0.66,2.17c-2.42,8.07-4.23,16.3-5.97,24.54
	c-1.21,5.75-2.37,11.51-3.71,17.23c-0.67,2.86-1.7,5.63-2.6,8.54c-0.15-0.25-0.25-0.4-0.34-0.56c-1.54-2.94-4-4.44-7.26-4.86
	c-7.36-0.93-14.33,0.38-21.05,3.39c-4.61,2.07-9.21,4.14-13.43,6.97c-6.01,4.03-10.7,9.17-13.67,15.81
	c-1.22,2.72-1.83,5.61-2.18,8.54c-0.84,7.22-1.64,14.45-2.39,21.69c-0.46,4.39-0.79,8.8-1.18,13.2c-0.01,0.16-0.06,0.31-0.1,0.53
	c-1.7-4.72-0.36-26.7,2.16-37.22c2.93-12.27,7.72-23.75,14.5-34.39c6.78-10.64,15.15-19.85,25.04-27.68
	C89.5,74.76,100.4,68.83,112.48,64.66z"/>
<path class="st0" d="M198.16,70.31c-1.72,2.79-3.35,5.5-5.04,8.17c-2.41,3.81-4.85,7.6-7.29,11.39c-0.38,0.59-0.82,1.16-1.29,1.69
	c-1.1,1.23-1.9,1.37-3.4,0.71c-1.83-0.81-3.63-1.72-5.52-2.39c-6.11-2.17-12.37-3.76-18.81-4.52c-3.8-0.45-7.62-0.73-11.43-0.96
	c-1.76-0.11-3.54,0.11-5.31,0.09c-1.01-0.02-2.02-0.2-3.02-0.36c-1.27-0.2-2.27-1.16-2.09-2.71c0.32-2.79,0.59-5.59,1.02-8.36
	c0.68-4.41,1.47-8.8,2.21-13.19c0.04-0.23,0.1-0.46,0.17-0.72C159.3,57.36,179.2,60.99,198.16,70.31z"/>
<path class="st0" d="M238.75,235.3c-0.76-0.92-1.49-1.72-2.12-2.59c-4.47-6.22-9.05-12.35-14.06-18.15
	c-4.41-5.1-9.03-10-14.02-14.54c-2.17-1.98-3.99-4.16-4.58-7.14c-0.54-2.75-0.18-5.46,0.51-8.13c0.62-2.42,1.34-4.81,2.02-7.21
	c0.33-1.18,0.58-1.31,1.82-1.28c1.63,0.04,3.26,0.04,4.89,0.02c1.81-0.03,3.25,0.65,4.15,2.23c4.43,7.75,11.28,12.5,19.39,15.65
	c2.83,1.1,5.76,1.96,8.63,2.95c0.85,0.29,1.68,0.63,2.51,0.96c2.21,0.88,3.17,2.61,3.52,4.9c0.51,3.37-0.19,6.62-0.62,9.92
	c-0.36,2.73-1.68,5.04-2.86,7.41c-2.5,5.04-5.44,9.83-8.71,14.41C239.1,234.85,238.98,235,238.75,235.3z"/>
<path class="st0" d="M58.94,198.24c0-0.96-0.02-1.8,0-2.64c0.12-5.74,0.14-11.49,0.4-17.22c0.21-4.62,0.65-9.23,1.11-13.84
	c0.25-2.51,1.45-3.46,3.99-3.6c2.29-0.13,4.59-0.1,6.85-0.43c6.3-0.91,11.11-4.11,14.26-9.71c0.15-0.27,0.29-0.54,0.44-0.81
	c0.94-1.71,1.8-2.17,3.76-1.9c1.03,0.14,2.05,0.35,3.06,0.57c0.91,0.2,1.22,0.59,1.13,1.5c-0.06,0.6-0.19,1.22-0.44,1.77
	c-1.9,4.32-2.74,8.91-3.55,13.52c-0.79,4.51-1.52,9.03-3.09,13.35c-0.27,0.75-0.4,1.55-0.61,2.33c-0.16,0.6-0.5,0.99-1.16,1.08
	c-4.76,0.65-8.81,2.87-12.48,5.83c-2.94,2.37-5.81,4.84-8.71,7.26C62.44,196.53,60.71,197.34,58.94,198.24z"/>
<path class="st0" d="M194.73,271.39c0.51-14.99,1.68-29.7,5.41-44.26c3.99,4.25,7.64,8.63,11.37,12.94
	c3.72,4.3,7.6,8.47,11.48,12.76C214.67,260.36,205.28,266.54,194.73,271.39z"/>
<path d="M124.25,129.62c-0.03,0.34-0.05,0.53-0.06,0.71c-0.02,2.11,0.61,3.31,2.82,3.59c2.72,0.35,5.42,0.74,8.14,1.08
	c1.89,0.24,2.82,1.57,2.18,3.21c-0.34,0.88-1.04,1.39-1.94,1.44c-1.22,0.07-2.45,0.06-3.67-0.03c-4.22-0.29-8.43-0.62-12.65-0.95
	c-1.51-0.12-3.01-0.25-4.51-0.42c-1.5-0.17-3.05-2.06-2.85-3.56c0.06-0.47,0.47-0.96,0.85-1.29c0.43-0.38,1.02-0.58,1.53-0.88
	c4.03-2.39,3.43-6.08,0.4-8.47c-0.28-0.22-0.59-0.39-0.88-0.59c-0.86-0.59-1.04-1.01-0.8-1.9c0.23-0.84,0.85-1.4,1.72-1.43
	c0.51-0.02,1.03,0.1,1.55,0.14c2.91,0.28,5.82,0.59,8.74,0.82c4.07,0.33,8.15,0.57,12.12,1.65c1,0.27,2.05,0.32,3.07,0.49
	c1.96,0.34,2.74,1.55,2.16,3.33c-0.39,1.2-1.14,1.7-2.52,1.51c-2.29-0.32-4.57-0.71-6.85-1.09c-1.65-0.28-3.29-0.62-4.94-0.89
	c-0.53-0.09-1.09-0.07-1.63-0.02c-0.95,0.08-1.52,0.62-1.78,1.65c-0.09,0.34-0.11,0.7-0.15,1.05
	C124.27,129.11,124.26,129.44,124.25,129.62z"/>
<path d="M177.09,127.49c2.72,0,5.43-0.04,8.15,0.01c2.38,0.05,4.61,0.72,6.63,1.98c1.32,0.82,1.75,1.82,1.38,3.08
	c-0.35,1.18-1.15,1.75-2.35,1.47c-4.05-0.95-8.18-1.11-12.3-1.31c-0.61-0.03-1.23,0.03-1.83,0.11c-0.83,0.11-1.4,0.62-1.58,1.42
	c-0.16,0.73-0.28,1.5-0.22,2.23c0.1,1.34,0.87,2.13,2.35,2.46c1.86,0.42,3.74,0.76,5.61,1.15c1.11,0.23,2.22,0.43,3.32,0.71
	c1.18,0.3,1.63,0.96,1.6,2.16c-0.03,1.08-0.66,1.96-1.74,2.08c-1.04,0.12-2.12,0.09-3.16-0.04c-4.16-0.54-8.32-1.18-12.48-1.71
	c-1.64-0.21-3.3-0.23-4.94-0.41c-0.73-0.08-1.49-0.25-2.16-0.54c-0.83-0.37-1.05-1.2-0.56-1.96c0.35-0.54,0.86-0.99,1.35-1.43
	c0.53-0.47,1.16-0.82,1.66-1.32c1.36-1.37,1.48-3.18,0.41-4.77c-0.51-0.76-1.06-1.52-1.44-2.35c-0.7-1.49-0.19-2.65,1.44-2.91
	c2.09-0.32,4.22-0.42,6.33-0.53c1.51-0.08,3.02-0.02,4.53-0.02C177.09,127.22,177.09,127.36,177.09,127.49z"/>
<path d="M155.2,158.56c0,2.29,0.01,4.58,0,6.87c-0.01,1.88-0.93,2.8-2.73,2.75c-1.33-0.03-2.29-0.84-2.35-2.16
	c-0.12-2.8-0.15-5.61-0.21-8.42c-0.02-0.82,0.02-1.66-0.06-2.47c-0.23-2.19-1.36-3.31-3.54-3.68c-1.92-0.33-3.61,0.26-5.13,1.36
	c-2.44,1.76-4.38,4.02-5.97,6.56c-0.66,1.06-1.26,2.16-1.92,3.22c-0.67,1.07-1.31,1.37-2.2,1.13c-1.26-0.34-2.17-1.21-2.11-2.33
	c0.06-1.08,0.27-2.21,0.66-3.22c0.95-2.46,2.74-4.34,4.62-6.1c2.75-2.58,5.84-4.67,9.49-5.74c3.08-0.91,6.03-0.67,8.35,1.88
	c1.72,1.89,2.65,4.17,2.95,6.7c0.14,1.22,0.16,2.45,0.24,3.67C155.26,158.56,155.23,158.56,155.2,158.56z"/>
<path d="M130.16,270.16c-0.11,0.82-0.17,1.65-0.34,2.45c-0.21,0.99-0.94,1.52-1.93,1.55c-1.13,0.04-1.86-0.34-2.1-1.39
	c-0.39-1.74-0.67-3.52-0.92-5.29c-0.35-2.52-0.63-5.06-0.95-7.59c-0.19-1.49,0.32-2.6,1.41-3c1.44-0.52,2.78,0.15,3.18,1.7
	c0.26,1,0.37,2.04,0.51,3.07c0.36,2.59,0.7,5.19,1.04,7.79c0.03,0.23,0.03,0.47,0.04,0.71
	C130.12,270.16,130.14,270.16,130.16,270.16z"/>
<path d="M133.26,220.58c0.02-1.36,0.34-2.61,1.02-3.8c0.6-1.04,2.26-1.48,3.11-0.06c0.78,1.29,1.11,2.68,1.28,4.14
	c0.3,2.56,0.41,5.12,0.09,7.69c-0.18,1.38-0.87,1.99-2.18,2.04c-1.27,0.04-2.12-0.57-2.34-1.88c-0.21-1.25-0.25-2.53-0.4-3.79
	C133.67,223.47,133.45,222.03,133.26,220.58z"/>
<path d="M118.63,237.82c-0.07,3.62-0.98,7.04-2.44,10.33c-0.44,0.98-1.22,1.33-2.26,1.04c-1.16-0.32-1.96-1.31-1.95-2.57
	c0.01-0.75,0.02-1.56,0.3-2.23c0.74-1.81,0.86-3.71,1.09-5.61c0.21-1.74,1.02-3.02,2.69-3.68c1.48-0.59,2.55,0.12,2.57,1.71
	C118.63,237.16,118.63,237.49,118.63,237.82z"/>
<path d="M141.81,254.74c-0.12,0.49-0.2,1.13-0.44,1.71c-0.5,1.26-2.09,1.59-3.02,0.6c-0.55-0.57-1.01-1.25-1.39-1.95
	c-1.27-2.31-2.16-4.76-2.55-7.38c-0.29-1.91,0.97-3.32,2.65-2.89c1.06,0.27,1.9,0.93,2.28,1.97c0.8,2.19,1.54,4.4,2.27,6.61
	C141.73,253.78,141.73,254.2,141.81,254.74z"/>
<path d="M143.63,237.93c-0.02-0.88,0.1-1.67,1.03-2.07c0.89-0.39,1.78-0.24,2.5,0.55c1.87,2.05,2.99,4.51,3.77,7.13
	c0.24,0.81,0.38,1.65,0.51,2.49c0.16,1.04-0.42,2.05-1.38,2.48c-0.65,0.29-1.19,0.11-1.66-0.39c-2.3-2.47-3.9-5.31-4.54-8.65
	C143.77,238.96,143.71,238.44,143.63,237.93z"/>
<path d="M156.1,268.33c0,1.6-1.18,2.44-2.63,1.94c-1.93-0.67-2.6-2.23-2.94-4.06c-0.22-1.15-0.55-2.28-0.82-3.41
	c-0.33-1.38-0.03-2.67,0.59-3.89c0.31-0.61,0.92-0.75,1.6-0.53c2.02,0.66,2.91,2.21,3.27,4.16c0.33,1.83,0.61,3.67,0.91,5.5
	C156.09,268.15,156.1,268.27,156.1,268.33z"/>
<path d="M130.97,237.37c-0.2,1.64-0.43,3.8-0.75,5.94c-0.26,1.71-1.32,2.73-2.88,2.97c-1.26,0.19-2.24-0.49-2.33-1.76
	c-0.06-0.88,0.03-1.79,0.14-2.67c0.2-1.52,0.42-3.04,0.71-4.54c0.24-1.27,0.99-2.17,2.24-2.6
	C129.99,234.07,131.07,234.87,130.97,237.37z"/>
<path d="M145.68,270.76c-0.06,2-0.11,4-0.17,6c-0.01,0.26-0.02,0.52-0.04,0.78c-0.15,1.49-0.9,2.22-2.3,2.25
	c-1.37,0.03-2.35-0.69-2.44-2.1c-0.1-1.54,0.03-3.1,0.09-4.65c0.04-1.06,0.04-2.13,0.25-3.16c0.28-1.38,1.54-2.14,2.94-1.95
	C145.3,268.1,145.85,268.99,145.68,270.76z"/>
<path d="M113.66,268.66c-0.01,2.05-1.25,2.93-2.91,2.41c-1.33-0.42-2.05-1.35-2.33-2.68c-0.26-1.24-0.53-2.49-0.76-3.73
	c-0.21-1.12-0.06-2.21,0.4-3.25c0.42-0.94,1.19-1.3,2.2-1.09c1.58,0.33,2.56,1.52,2.67,3.22c0.08,1.22,0.15,2.45,0.31,3.66
	C113.32,267.79,113.58,268.36,113.66,268.66z"/>
<path d="M125.93,219.94c-0.06,1.16-0.08,2.31-0.19,3.46c-0.13,1.32-0.75,1.9-1.98,1.96c-1.47,0.07-2.36-0.53-2.63-1.81
	c-0.07-0.32-0.1-0.66-0.09-0.98c0.04-1.72,0.07-3.45,0.15-5.17c0.09-1.82,1.02-2.76,2.59-2.7c1.33,0.05,2.12,0.79,2.18,2.12
	c0.05,1.04,0.01,2.08,0.01,3.12C125.95,219.94,125.94,219.94,125.93,219.94z"/>
<path d="M106.67,252.77c-0.26,0.98-0.48,2.16-0.89,3.27c-0.48,1.31-1.5,1.87-2.89,1.8c-0.9-0.04-1.56-0.53-1.69-1.42
	c-0.11-0.78-0.17-1.6-0.04-2.37c0.18-1.03,0.5-2.06,0.88-3.03c0.34-0.87,1.09-1.32,2.02-1.47c1.13-0.18,1.9,0.25,2.24,1.33
	C106.47,251.42,106.52,251.98,106.67,252.77z"/>
<path d="M117.62,226.41c-0.18,2.03-1.29,3.85-3.36,5.03c-0.74,0.42-1.57,0.3-2.29-0.17c-0.68-0.45-0.85-1.14-0.79-1.92
	c0.17-2.21,1.16-3.9,3.15-4.94c0.27-0.14,0.56-0.26,0.85-0.32C116.69,223.77,117.62,224.53,117.62,226.41z"/>
<g>
	<path class="st0" d="M90.85,129.1c2.74-0.84,5.39-1.8,7.43-4.52c-0.04,1.65-0.02,3.09-0.72,4.38c-0.33,0.61-0.82,0.94-1.46,0.85
		c-1.17-0.15-2.33-0.35-3.5-0.52C92.02,129.22,91.43,129.17,90.85,129.1z"/>
	<path d="M199.48,227.69c-4.13,16.39-5.77,32.89-5.68,49.59c-2.37,0.69-4.74,1.38-7.19,2.09c0.1-2.12,0.18-4.22,0.31-6.33
		c0.23-3.87,0.42-7.74,0.76-11.6c0.42-4.77,0.97-9.52,1.48-14.28c0.3-2.8,0.52-5.61,0.96-8.39c0.58-3.73,1.32-7.43,2.02-11.14
		c0.71-3.8,1.44-7.6,2.18-11.39c0.12-0.59,0.28-1.2,0.55-1.73c0.61-1.22,1.8-1.5,2.88-0.68c0.61,0.47,1.18,1.02,1.65,1.62
		c2.3,2.94,4.65,5.85,6.82,8.88c3.3,4.59,6.86,8.95,10.77,13.01c5.72,5.94,11.46,11.85,17.3,17.67c1.8,1.79,3.9,3.31,5.95,4.83
		c1.39,1.03,2.63,1.04,3.93-0.1c1.4-1.23,2.62-2.68,3.84-4.09c5.76-6.63,8.95-14.5,11.12-22.88c1.2-4.63,2.08-9.3,1.92-14.11
		c-0.13-3.96-0.38-7.93-0.63-11.89c-0.17-2.81-0.42-5.62-0.65-8.42c-0.36-4.32-1.33-8.53-2.61-12.65
		c-1.75-5.59-3.44-11.21-5.5-16.68c-1.33-3.53-3.23-6.86-4.98-10.23c-0.75-1.44-1.86-2.65-3.23-3.58c-1.25-0.86-2.58-1.35-4.14-1.3
		c-4.85,0.14-9.66-0.38-14.44-1.12c-2.5-0.39-4.78-1.46-7.12-2.38c-2.77-1.09-5.56-2.13-8.34-3.18c-0.41-0.16-0.85-0.28-1.29-0.36
		c-1.02-0.18-1.44,0.13-1.44,1.17c0,1.47,0.36,2.87,1.47,3.91c0.85,0.8,1.78,1.55,2.77,2.16c3.21,1.99,6.47,3.89,9.7,5.85
		c0.72,0.44,1.44,0.89,2.08,1.44c1.17,1.02,0.94,2.42-0.55,2.89c-1.08,0.34-2.25,0.55-3.38,0.53c-4.32-0.07-8.63-0.32-12.95-0.38
		c-2.7-0.04-5.4,0.11-8.09,0.24c-0.83,0.04-1.62,0.3-2.05,1.14c-0.54,1.04-0.33,2,0.72,2.49c1.01,0.47,2.1,0.82,3.18,1.07
		c2.56,0.59,5.12,1.27,7.77,1.13c1.61-0.09,3.21-0.38,4.82-0.53c4.27-0.4,7.83,0.96,10.41,4.47c1.36,1.85,2.71,3.74,3.8,5.75
		c2.26,4.17,5.68,6.8,10.08,8.39c3.61,1.31,7.32,2.13,11.09,2.78c3.17,0.55,5.96,1.95,8.04,4.53c1.48,1.83,2.03,4,2.23,6.27
		c0.77,8.39-0.47,16.52-3.28,24.42c-1.25,3.5-3.22,6.67-5.1,9.86c-1.16,1.98-2.33,3.96-3.56,5.91c-0.51,0.81-1.09,1.6-1.78,2.26
		c-1.67,1.59-3.67,1.74-5.5,0.34c-1.43-1.09-2.69-2.41-4.06-3.58c-4.08-3.51-7.15-7.89-10.4-12.11
		c-7.33-9.54-15.46-18.35-24.11-26.7c-2.33-2.25-3.54-4.97-3.58-8.21c-0.04-3.31,0.66-6.53,1.32-9.74c0.43-2.09,0.95-4.16,1.4-6.24
		c0.24-1.13-0.09-1.85-1.1-2.4c-0.55-0.3-1.15-0.53-1.74-0.76c-2.63-1.05-4.83-2.67-6.57-4.91c-3.43-4.41-1.28-8.38,2.04-10.52
		c1.85-1.19,3.96-1.56,6.1-1.73c2.94-0.23,5.86,0.05,8.76,0.6c0.16,0.03,0.32,0.03,0.48,0.04c0.07-0.08,0.14-0.15,0.21-0.23
		c-0.32-0.24-0.68-0.43-0.94-0.71c-1.83-1.98-3.69-3.94-5.44-5.99c-0.99-1.16-1.65-2.56-1.95-4.09c-0.44-2.22,0.02-4.15,1.84-5.64
		c1.61-1.32,2.5-3.04,2.68-5.09c0.12-1.35,0.18-2.72,0.13-4.08c-0.12-3.03-0.35-6.05-0.5-9.07c-0.43-8.58,0.79-16.78,5.34-24.29
		c3.54-5.84,6.03-12.18,8.29-18.6c4.35-12.35,9.77-24.25,15.01-36.24c1.25-2.86,2.41-5.75,3.59-8.63c0.16-0.38,0.23-0.79,0.4-1.39
		c-0.5,0.34-0.83,0.55-1.14,0.78c-2.91,2.17-5.26,4.86-7.39,7.78c-6.66,9.11-13.52,18.09-20.05,27.3
		c-4.38,6.18-8.51,12.55-12.13,19.22c-1.07,1.97-1.87,4.09-2.87,6.1c-0.65,1.3-1.32,2.61-2.18,3.76c-1.78,2.37-4.2,2.62-6.48,0.73
		c-2.07-1.72-4.54-2.53-7.05-3.2c-7.63-2.05-15.31-3.9-23.09-5.29c-3.68-0.66-7.41-1-11.14-0.43c-1.55,0.24-3.08,0.61-4.63,0.85
		c-1.32,0.21-2.63,0.06-3.85-0.54c-1.85-0.9-2.65-2.52-2.92-4.45c-0.42-3.09-0.37-6.19-0.12-9.28c1.12-13.89,4.46-27.32,8.43-40.63
		c1.48-4.97,2.81-9.97,3.66-15.09c0.17-1.04,0.25-2.09,0.23-3.21c-0.16,0.21-0.32,0.41-0.48,0.63c-4.75,6.54-8.52,13.63-11.85,20.98
		c-7.14,15.77-12.53,32.12-16.28,49.02c-1.5,6.75-3,13.5-4.56,20.24c-0.95,4.09-2.04,8.14-2.98,12.22c-0.4,1.75-0.61,3.56-0.84,5.35
		c-0.19,1.46,0.16,2.84,0.76,4.17c0.74,1.62,1.46,3.24,1.76,5.02c0.46,2.72-0.1,5.08-2.16,6.99c-5.44,5.02-7.69,11.51-8.61,18.62
		c-0.82,6.36-2.32,12.58-4.15,18.73c-0.56,1.89-1.1,3.78-2.19,5.46c-0.93,1.43-2.14,2.42-3.9,2.59c-0.91,0.08-1.83,0.09-2.74,0.14
		c-2.02,0.1-3.87,0.7-5.45,2c-4.37,3.59-8.74,7.19-13.12,10.77c-1.43,1.18-2.87,2.35-4.35,3.47c-1.79,1.35-3.25,2.97-4.36,4.92
		c-0.35,0.61-0.68,1.24-1.08,1.81c-0.84,1.2-2.21,1.11-2.74-0.26c-0.39-1.01-0.61-2.12-0.71-3.21c-0.4-4.5-0.44-9.01-0.16-13.51
		c0.24-3.91,0.59-7.82,0.73-11.74c0.16-4.51,0.16-9.02,0.21-13.53c0.04-3.68,0.81-7.21,2.06-10.66c0.45-1.25,1.06-2.4,2.01-3.35
		c1.19-1.19,2.63-1.62,4.3-1.52c2.18,0.13,4.36,0.26,6.54,0.26c2.26-0.01,4.5-0.26,6.64-1.05c2.26-0.83,3.82-2.25,4.06-4.8
		c0.12-1.34-0.29-2.4-1.5-3.08c-0.35-0.2-0.7-0.39-1.01-0.63c-0.93-0.71-0.87-1.93,0.2-2.39c0.82-0.36,1.74-0.62,2.64-0.67
		c3.04-0.17,6.09-0.29,9.14-0.31c3.17-0.02,6.34,0.14,9.5,0.12c1.64-0.01,2.5-1.12,2.06-2.59c-0.16-0.52-0.66-1.02-1.13-1.36
		c-1.38-0.98-2.95-1.59-4.6-1.83c-2.27-0.33-4.56-0.65-6.85-0.65c-3.33,0-6.59-0.28-9.86-0.88c-2.5-0.46-5.08-0.49-7.63-0.7
		c-0.39-0.03-0.78-0.01-1.27-0.18c1.27-1.05,2.5-2.16,3.81-3.15c3.84-2.91,8.28-4.54,12.87-5.82c1.47-0.41,2.94-0.78,4.4-1.22
		c1.54-0.46,2.55-1.54,3.16-3c0.45-1.06,0.2-1.61-0.86-2.05c-1.69-0.7-3.43-0.62-5.2-0.42c-4.7,0.54-8.99,2.37-13.3,4.16
		c-5.08,2.12-9.99,4.51-14.45,7.8c-5.15,3.8-8.53,8.64-9.43,15.06c-0.86,6.09-1.78,12.16-2.58,18.25
		c-0.63,4.77-1.17,9.55-1.64,14.34c-0.42,4.37-0.74,8.75-1.01,13.13c-0.62,10.2-0.68,20.42-0.73,30.64
		c-0.01,1.65,0.15,3.35,0.55,4.94c0.67,2.67,3.4,4.65,5.98,4.42c1-0.09,2.01-0.48,2.92-0.92c2.66-1.3,4.99-3.12,7.06-5.2
		c6.48-6.5,13.04-12.94,18.66-20.24c1.18-1.53,2.56-2.96,4.06-4.17c2.5-2,5.6-1.63,7.72,0.66c1.38,1.49,1.5,3.23,1.01,5.07
		c-0.73,2.81-1.62,5.59-2.23,8.43c-0.99,4.61-1.85,9.24-2.69,13.88c-1.06,5.84-2.11,11.68-3.07,17.53
		c-0.81,4.98-1.48,9.98-2.2,14.97c-0.14,0.97-0.26,1.94-0.41,3.12c-0.97-0.74-1.88-1.34-2.68-2.07c-0.72-0.66-1.47-1.13-2.42-1.34
		c-1.09-0.24-1.17-0.36-1.06-1.47c0.68-6.73,1.55-13.43,2.94-20.04c1.93-9.2,3.94-18.38,5.9-27.57c0.18-0.86,0.29-1.74,0.28-2.69
		c-0.14,0.17-0.29,0.32-0.41,0.5c-2.89,4.57-6.57,8.47-10.59,12.01c-4.67,4.11-9.51,8.03-14.3,12c-0.44,0.36-1.02,0.56-1.56,0.78
		c-1.49,0.61-2.95,1.35-4.5,1.76c-2.15,0.57-4.38,0.59-6.57,0.14c-3.43-0.69-5.81-2.69-6.7-6.09c-0.64-2.46-1.09-5-1.33-7.53
		c-0.77-8.35-1.07-16.73-0.77-25.12c0.13-3.49,0.37-6.98,0.63-10.47c0.28-3.79,0.61-7.57,0.98-11.35c0.41-4.13,0.87-8.26,1.33-12.39
		c0.41-3.73,0.83-7.46,1.29-11.19c0.52-4.16,0.86-8.38,2.31-12.35c2.14-5.82,5.79-10.59,10.55-14.52c4.24-3.49,9.04-6.03,14.04-8.24
		c3.67-1.62,7.34-3.22,11.29-4.07c4.55-0.98,9.11-1.13,13.71-0.36c2.87,0.48,4.92,2.06,6.3,4.59c0.11,0.2,0.22,0.4,0.38,0.71
		c0.63-1.91,1.21-3.72,1.84-5.52c1.42-4.11,2.15-8.4,3.09-12.63c2.29-10.29,4.35-20.65,7.51-30.72c4.78-15.22,10.62-30,18.41-43.96
		c2.79-5.01,5.96-9.78,9.27-14.45c0.5-0.7,1.08-1.36,1.69-1.97c1.47-1.48,3.26-1.95,5.23-1.28c2.03,0.7,3.02,2.35,3.09,4.38
		c0.05,1.67-0.2,3.37-0.5,5.02c-1.22,6.52-2.46,13.04-3.82,19.53c-0.47,2.21-1.34,4.34-2.02,6.51c-2.61,8.26-4.64,16.66-6.02,25.21
		c-0.67,4.14-1.35,8.29-2,12.43c-0.13,0.81-0.18,1.64-0.2,2.46c-0.04,1.43,0.54,2.18,1.92,2.53c2.05,0.52,4.14,0.44,6.23,0.46
		c2.44,0.03,4.89,0.03,7.31,0.27c3.36,0.33,6.73,0.7,10.04,1.35c6.77,1.31,13.45,3.02,19.66,6.17c2.27,1.15,3.14,1.01,4.58-1.1
		c2.75-4,5.44-8.05,8.04-12.15c5.4-8.53,10.69-17.12,16.78-25.18c5.56-7.36,11.34-14.57,17.56-21.39c1.89-2.07,4.06-3.9,6.19-5.73
		c1.23-1.05,2.68-1.83,4.41-1.78c2.54,0.08,4.08,1.65,4.01,4.18c-0.05,1.88-0.56,3.67-1.26,5.39c-2.15,5.25-4.36,10.47-6.54,15.71
		c-4.48,10.73-8.62,21.59-12.44,32.57c-2.05,5.9-4.86,11.47-7.59,17.08c-2.28,4.68-4.3,9.48-5.32,14.63
		c-0.59,2.96-0.66,5.97-0.57,8.98c0.1,3.39,0.55,6.73,1.39,10.02c0.76,3,2.42,5.35,4.96,7.1c3.73,2.57,7.88,4.1,12.28,5.05
		c3.4,0.73,6.86,0.65,10.3,0.96c1.91,0.17,3.84,0.36,5.7,0.8c3.23,0.76,5.59,2.83,7.5,5.49c2.35,3.25,3.86,6.89,5.23,10.63
		c1.59,4.33,3.29,8.62,4.98,12.92c1.58,4.02,2.48,8.2,3.25,12.43c0.97,5.37,1.4,10.79,1.84,16.22c0.4,4.94,0.71,9.89,0.52,14.85
		c-0.52,13.68-4.38,26.29-12.22,37.6c-1.85,2.67-3.97,5.13-6.65,7.03c-1.92,1.36-4.01,2.4-6.41,2.1c-1.41-0.17-2.81-0.7-4.15-1.23
		c-2.77-1.1-5.13-2.85-7.24-4.92c-6.09-6-12.35-11.83-17.84-18.41c-3.66-4.38-7.37-8.72-11.06-13.07
		C200.93,229.25,200.25,228.55,199.48,227.69z M210.59,177.31c0-0.01,0-0.03,0-0.04c-0.92-0.01-1.83,0.03-2.74-0.04
		c-0.76-0.05-1.22,0.25-1.43,0.95c-0.17,0.56-0.27,1.14-0.43,1.7c-0.67,2.29-1.44,4.56-2.01,6.88c-0.6,2.43-0.83,4.91-0.25,7.39
		c0.65,2.77,2.38,4.83,4.4,6.72c6.28,5.86,12.07,12.19,17.34,18.96c3.64,4.69,7.07,9.54,10.62,14.3c0.54,0.73,1.17,1.41,1.85,2.02
		c0.95,0.85,1.55,0.84,2.56,0.05c0.51-0.4,0.98-0.88,1.39-1.39c1.95-2.4,3.42-5.1,4.6-7.95c1.76-4.25,2.72-8.71,3.52-13.22
		c0.56-3.12,1.11-6.22,0.67-9.43c-0.32-2.27-1.25-4-3.45-4.9c-0.82-0.34-1.65-0.68-2.48-0.98c-2.87-1.02-5.79-1.92-8.61-3.04
		c-5.46-2.17-10.43-5.15-14.49-9.47c-1.7-1.81-3.15-3.79-4.36-5.95c-0.99-1.77-2.47-2.63-4.51-2.55
		C212.05,177.36,211.32,177.32,210.59,177.31z M59.5,197.55c0.1,0,0.18,0.03,0.23,0c1.58-0.91,3.27-1.69,4.71-2.79
		c2.75-2.09,5.33-4.38,8.02-6.55c3.91-3.15,8.16-5.6,13.25-6.25c0.63-0.08,0.94-0.48,1.1-1.04c0.21-0.77,0.35-1.56,0.63-2.31
		c1.6-4.29,2.38-8.77,3.21-13.24c0.84-4.57,1.73-9.12,3.65-13.39c0.25-0.55,0.38-1.16,0.45-1.76c0.11-0.91-0.2-1.31-1.09-1.51
		c-1.01-0.23-2.02-0.44-3.04-0.59c-1.96-0.29-2.81,0.15-3.79,1.9c-0.14,0.25-0.27,0.49-0.41,0.74c-3.17,5.53-7.98,8.68-14.25,9.52
		c-2.27,0.3-4.59,0.26-6.88,0.36c-2.45,0.11-3.66,1.06-3.94,3.53c-0.5,4.48-0.99,8.96-1.23,13.46c-0.32,5.84-0.4,11.69-0.58,17.53
		C59.5,195.95,59.51,196.75,59.5,197.55z M90.85,129.1c0.66,0.07,1.32,0.12,1.98,0.2c1.32,0.17,2.65,0.37,3.97,0.52
		c0.72,0.08,1.28-0.24,1.65-0.85c0.8-1.29,0.77-2.73,0.81-4.38C96.96,127.31,93.96,128.26,90.85,129.1z"/>
	<path d="M163.91,284.41c-1.81,0.26-3.59,0.52-5.47,0.79c0.12-1.18,0.25-2.31,0.34-3.44c0.34-4.22,0.37-8.44,0.13-12.67
		c-0.33-5.78-1.6-11.42-2.6-17.1c-0.67-3.81-1.18-7.65-1.69-11.48c-0.84-6.29-1.82-12.53-4.35-18.42
		c-2.99-6.96-7.85-12.3-14.24-16.26c-2.43-1.5-5.08-2.41-8-2.29c-1.78,0.07-3.41,0.6-4.94,1.46c-3.68,2.06-6.45,5.01-8.57,8.64
		c-7.97,13.62-13.98,28.06-17.83,43.36c-1.14,4.54-1.92,9.17-2.86,13.77c-0.04,0.2-0.1,0.4-0.2,0.76c-1.31-0.58-2.58-1.12-3.83-1.7
		c-0.45-0.21-0.69-0.56-0.57-1.14c1.22-5.95,2.35-11.91,3.66-17.84c1.39-6.3,3.95-12.2,6.51-18.1c2.53-5.83,5.02-11.68,8.35-17.12
		c2.84-4.64,5.94-9.08,9.98-12.78c2.13-1.95,4.49-3.47,7.4-3.95c3.43-0.56,6.7-0.1,9.9,1.27c12.05,5.16,19.43,14.25,22.48,26.89
		c0.82,3.41,1.19,6.93,1.76,10.39c0.74,4.49,1.45,8.98,2.21,13.47c0.99,5.9,2.13,11.78,2.51,17.76c0.19,2.99,0.01,6.01-0.01,9.01
		C163.96,279.9,163.93,282.11,163.91,284.41z"/>
	<path d="M125.05,130.24c-0.02,0.16-0.04,0.33-0.04,0.49c-0.09,2.39,0.72,3.42,2.8,3.7c2.69,0.37,5.38,0.78,8.08,1.15
		c1.86,0.25,2.76,1.63,2.08,3.25c-0.36,0.87-1.07,1.34-1.97,1.38c-1.17,0.05-2.34,0.04-3.51-0.06c-4.8-0.39-9.59-0.82-14.38-1.24
		c-0.91-0.08-1.82-0.18-2.73-0.29c-1.51-0.2-3.09-2.13-2.82-3.61c0.08-0.48,0.53-0.98,0.94-1.29c0.63-0.48,1.41-0.75,2.06-1.2
		c1.45-1.01,2.43-2.33,2.21-4.19c-0.19-1.66-1.16-2.89-2.44-3.88c-0.24-0.19-0.51-0.34-0.76-0.51c-0.88-0.61-1.06-1.06-0.79-1.96
		c0.25-0.84,0.93-1.4,1.83-1.36c0.79,0.03,1.58,0.22,2.37,0.3c3.15,0.31,6.3,0.64,9.46,0.9c3.63,0.31,7.23,0.75,10.75,1.7
		c1.01,0.27,2.08,0.36,3.11,0.57c0.84,0.17,1.5,0.62,1.69,1.5c0.21,0.98,0.05,1.93-0.68,2.68c-0.56,0.58-1.32,0.6-2.05,0.48
		c-2.75-0.47-5.49-0.97-8.24-1.45c-1.45-0.25-2.91-0.56-4.37-0.67c-1.54-0.12-2.23,0.55-2.47,2.08
		C125.09,129.2,125.08,129.72,125.05,130.24C125.04,130.24,125.04,130.24,125.05,130.24z"/>
	<path d="M185.15,146.27c-2.48-0.35-4.97-0.69-7.44-1.06c-3.99-0.6-7.95-1.38-12-1.5c-0.65-0.02-1.33-0.26-1.93-0.55
		c-0.78-0.38-1.01-1.19-0.53-1.9c0.37-0.55,0.89-1.01,1.39-1.46c0.51-0.45,1.12-0.78,1.61-1.25c1.4-1.36,1.55-3.17,0.48-4.79
		c-0.49-0.74-1.01-1.48-1.38-2.28c-0.7-1.53-0.18-2.57,1.46-2.95c2.28-0.53,4.61-0.51,6.93-0.42c3.99,0.16,7.97,0.32,11.96,0.5
		c2.36,0.11,4.57,0.78,6.57,2.05c1.27,0.81,1.69,1.8,1.34,3.02c-0.35,1.21-1.16,1.78-2.38,1.48c-4.01-0.98-8.11-1.17-12.21-1.42
		c-0.58-0.03-1.17,0.02-1.75,0.09c-0.89,0.1-1.47,0.64-1.66,1.5c-0.15,0.68-0.26,1.39-0.21,2.08c0.08,1.37,0.84,2.17,2.34,2.52
		c1.85,0.43,3.71,0.8,5.57,1.19c1.03,0.22,2.07,0.42,3.09,0.69c1.41,0.37,1.88,1.07,1.73,2.45c-0.12,1.09-1,1.85-2.24,1.93
		c-0.23,0.01-0.47,0-0.7,0C185.15,146.2,185.15,146.23,185.15,146.27z"/>
	<path d="M155.53,159.16c-0.02,2.27-0.03,4.55-0.07,6.82c-0.03,1.87-0.94,2.77-2.73,2.72c-1.35-0.04-2.29-0.87-2.32-2.24
		c-0.08-2.83-0.08-5.67-0.11-8.51c-0.01-0.75,0.02-1.5-0.05-2.25c-0.22-2.18-1.31-3.3-3.48-3.7c-1.91-0.35-3.59,0.22-5.11,1.29
		c-2.46,1.74-4.42,3.98-6.04,6.52c-0.65,1.03-1.25,2.1-1.91,3.12c-0.68,1.06-1.31,1.35-2.19,1.11c-1.25-0.34-2.15-1.22-2.08-2.34
		c0.07-1.08,0.29-2.19,0.69-3.19c0.96-2.43,2.76-4.28,4.65-6.02c2.76-2.54,5.85-4.58,9.48-5.62c3.07-0.88,5.99-0.61,8.28,1.94
		c1.69,1.89,2.6,4.17,2.87,6.68c0.13,1.21,0.14,2.43,0.2,3.65C155.58,159.16,155.55,159.16,155.53,159.16z"/>
	<path d="M129.56,269.81c-0.11,0.79-0.17,1.59-0.34,2.36c-0.23,1.03-0.94,1.57-1.95,1.59c-1.14,0.03-1.87-0.39-2.09-1.47
		c-0.36-1.72-0.61-3.46-0.83-5.2c-0.32-2.51-0.57-5.03-0.87-7.55c-0.18-1.48,0.34-2.58,1.44-2.97c1.44-0.5,2.76,0.18,3.14,1.72
		c0.25,1,0.35,2.03,0.48,3.05c0.33,2.58,0.65,5.17,0.96,7.75c0.03,0.23,0.02,0.47,0.03,0.7
		C129.53,269.81,129.54,269.81,129.56,269.81z"/>
	<path d="M133.12,220.56c0.04-1.36,0.33-2.62,1.07-3.75c0.84-1.28,2.21-1.27,3.06,0c0.84,1.25,1.09,2.67,1.25,4.12
		c0.27,2.52,0.36,5.05,0.02,7.57c-0.19,1.43-0.88,2.03-2.21,2.06c-1.28,0.02-2.09-0.6-2.31-1.98c-0.19-1.22-0.22-2.47-0.35-3.7
		C133.5,223.44,133.3,222,133.12,220.56z"/>
	<path d="M118.42,237.58c-0.1,3.6-1.04,6.99-2.53,10.24c-0.43,0.95-1.2,1.28-2.2,1.01c-1.19-0.33-1.99-1.32-1.97-2.59
		c0.01-0.7,0.03-1.45,0.29-2.08c0.76-1.86,0.93-3.82,1.18-5.77c0.24-1.83,1.2-3.08,2.97-3.64c1.25-0.39,2.22,0.32,2.26,1.62
		C118.44,236.78,118.42,237.18,118.42,237.58z"/>
	<path d="M141.29,254.6c-0.12,0.47-0.2,1.11-0.44,1.68c-0.5,1.25-2.08,1.59-3,0.6c-0.55-0.59-1.02-1.29-1.4-2.01
		c-1.22-2.29-2.07-4.71-2.44-7.29c-0.28-1.93,1.03-3.34,2.7-2.86c1.02,0.29,1.83,0.94,2.19,1.94c0.78,2.2,1.5,4.43,2.22,6.66
		C141.22,253.67,141.21,254.06,141.29,254.6z"/>
	<path d="M143.28,237.73c-0.01-0.81,0.19-1.5,1-1.85c0.84-0.37,1.74-0.23,2.39,0.45c1.81,1.92,2.86,4.27,3.64,6.74
		c0.3,0.95,0.47,1.96,0.63,2.95c0.17,1.04-0.41,2.03-1.37,2.47c-0.55,0.25-1.08,0.2-1.49-0.24
		C145.28,245.29,143.57,241.83,143.28,237.73z"/>
	<path d="M155.36,268.14c-0.03,1.68-1.19,2.51-2.59,2.02c-1.97-0.69-2.62-2.3-2.93-4.18c-0.18-1.1-0.5-2.18-0.76-3.26
		c-0.34-1.4,0-2.7,0.63-3.92c0.3-0.57,0.89-0.71,1.53-0.5c1.81,0.6,2.8,1.93,3.13,3.73c0.25,1.33,0.34,2.69,0.54,4.04
		C155.03,266.82,155.24,267.57,155.36,268.14z"/>
	<path d="M130.75,236.75c-0.28,2.11-0.53,4.24-0.86,6.34c-0.27,1.7-1.31,2.72-2.86,2.95c-1.29,0.19-2.3-0.5-2.33-1.8
		c-0.03-1.14,0.15-2.28,0.3-3.41c0.17-1.25,0.34-2.51,0.63-3.74c0.38-1.66,1.62-2.65,3.18-2.69c1.31-0.03,1.85,0.47,1.91,1.78
		c0.01,0.19,0,0.38,0,0.56C130.72,236.75,130.74,236.75,130.75,236.75z"/>
	<path d="M144.98,270.63c-0.07,1.92-0.15,3.83-0.22,5.75c-0.01,0.3-0.02,0.61-0.05,0.91c-0.16,1.45-0.88,2.15-2.24,2.21
		c-1.38,0.05-2.38-0.69-2.46-2.13c-0.09-1.51,0.06-3.04,0.13-4.55c0.05-1.05,0.06-2.12,0.27-3.14c0.28-1.37,1.44-2.1,2.82-1.97
		c1.08,0.1,1.7,0.72,1.79,1.8c0.03,0.37,0.04,0.75,0.05,1.12C145.04,270.63,145.01,270.63,144.98,270.63z"/>
	<path d="M113.25,268.41c-0.08,1.78-1.33,2.66-3,2.1c-1.29-0.43-1.99-1.34-2.25-2.64c-0.25-1.26-0.51-2.52-0.74-3.79
		c-0.19-1.11-0.02-2.2,0.45-3.22c0.42-0.9,1.17-1.24,2.15-1.04c1.56,0.32,2.56,1.52,2.65,3.2c0.05,0.89,0.04,1.78,0.13,2.67
		c0.05,0.55,0.21,1.1,0.34,1.64C113.06,267.7,113.16,268.05,113.25,268.41z"/>
	<path d="M125.85,219.78c-0.07,1.17-0.11,2.35-0.23,3.51c-0.14,1.35-0.77,1.91-2.04,1.95c-1.42,0.04-2.29-0.56-2.54-1.8
		c-0.07-0.34-0.1-0.7-0.09-1.05c0.05-1.69,0.1-3.38,0.19-5.07c0.1-1.81,1.03-2.75,2.58-2.68c1.35,0.06,2.13,0.82,2.17,2.18
		c0.03,0.98-0.01,1.97-0.02,2.96C125.87,219.78,125.86,219.78,125.85,219.78z"/>
	<path d="M106.41,252.31c-0.3,1.03-0.56,2.24-1.01,3.38c-0.5,1.25-1.71,1.82-3.05,1.6c-0.78-0.13-1.32-0.6-1.41-1.36
		c-0.1-0.8-0.16-1.64-0.02-2.42c0.19-1.04,0.53-2.08,0.95-3.06c0.4-0.95,1.27-1.33,2.28-1.4c0.89-0.06,1.58,0.36,1.85,1.21
		C106.18,250.84,106.25,251.48,106.41,252.31z"/>
	<path d="M117.53,226.23c-0.21,2.02-1.33,3.82-3.41,4.96c-0.74,0.4-1.56,0.28-2.27-0.2c-0.64-0.44-0.81-1.11-0.75-1.86
		c0.18-2.19,1.15-3.87,3.13-4.91c0.27-0.14,0.55-0.26,0.85-0.33C116.6,223.56,117.55,224.34,117.53,226.23z"/>
</g>
</svg>
